<svg xmlns="http://www.w3.org/2000/svg" viewBox="0 0 512 512">
  <defs>
    <radialGradient id="bg" cx="35%" cy="30%" r="80%">
      <stop offset="0%" stop-color="#1d4e36"/>
      <stop offset="100%" stop-color="#061710"/>
    </radialGradient>
    <radialGradient id="owl" cx="50%" cy="30%" r="70%">
      <stop offset="0%" stop-color="#f4efdf"/>
      <stop offset="100%" stop-color="#c7d3c4"/>
    </radialGradient>
  </defs>
  <rect width="512" height="512" rx="120" fill="url(#bg)"/>
  <ellipse cx="256" cy="310" rx="140" ry="150" fill="#284f3a"/>
  <ellipse cx="256" cy="300" rx="100" ry="110" fill="url(#owl)"/>
  <circle cx="214" cy="255" r="34" fill="#fff8e9"/>
  <circle cx="298" cy="255" r="34" fill="#fff8e9"/>
  <circle cx="214" cy="255" r="16" fill="#0e2820"/>
  <circle cx="298" cy="255" r="16" fill="#0e2820"/>
  <circle cx="208" cy="248" r="5" fill="#ffffff"/>
  <circle cx="292" cy="248" r="5" fill="#ffffff"/>
  <path d="M256 282l18 14-18 14-18-14z" fill="#3a553f"/>
  <path d="M182 197l-28-20 6-19 37 19z" fill="#355e47"/>
  <path d="M330 197l28-20-6-19-37 19z" fill="#355e47"/>
  <circle cx="256" cy="390" r="8" fill="#dfe8d9"/>
</svg>
